<svg preserveAspectRatio="none" width="100%" height="100%" overflow="visible" style="display: block;" viewBox="0 0 80 79.84" fill="none" xmlns="http://www.w3.org/2000/svg">
<g id="layer1">
<path id="path3078" d="M0 0H79.8013V43.1L75.8514 49.2748L79.8013 54.7704V79.84H0V39.2099L2.46872 36.3695L0 33.6526V0Z" fill="var(--fill-0, #016FD0)"/>
<path id="path3082" d="M15.4912 55.6318V43.0719H28.7568L30.1801 44.9319L31.6504 43.0719H79.8013V54.7656C79.8013 54.7656 78.5421 55.6193 77.0858 55.6318H50.4236L48.8189 53.6519V55.6318H43.5605V52.2521C43.5605 52.2521 42.8422 52.7239 41.2893 52.7239H39.4995V55.6318H31.5379L30.1167 53.7319L28.6736 55.6318H15.4912Z" fill="var(--fill-0, white)"/>
<path id="path3080" d="M0 33.6055L2.99145 26.614H8.16485L9.86253 30.5304V26.614H16.2935L17.3042 29.4447L18.2839 26.614H47.1525V28.0371C47.1525 28.0371 48.6701 26.614 51.1642 26.614L60.531 26.6469L62.1994 30.5119V26.614H67.5812L69.0624 28.8342V26.614H74.4936V39.174H69.0624L67.6429 36.9466V39.174H59.7358L58.9407 37.1941H56.815L56.0328 39.174H50.6705C48.5244 39.174 47.1525 37.78 47.1525 37.78V39.174H39.0675L37.4628 37.1941V39.174H7.39844L6.60382 37.1941H4.48492L3.69591 39.174H0V33.6055Z" fill="var(--fill-0, white)"/>
<path id="path3046" d="M4.05024 28.1624L0.0154294 37.5669H2.6423L3.38677 35.6837H7.71475L8.45536 37.5669H11.1401L7.10914 28.1624H4.05024ZM5.54305 30.3511L6.86227 33.6419H4.21997L5.54305 30.3511Z" fill="var(--fill-0, #016FD0)"/>
<path id="path3048" d="M11.4178 37.5653V28.1608L15.1508 28.1747L17.322 34.2381L19.4412 28.1608H23.1442V37.5653H20.799V30.6357L18.3129 37.5653H16.2561L13.7631 30.6357V37.5653H11.4178Z" fill="var(--fill-0, #016FD0)"/>
<path id="path3050" d="M24.7489 37.5653V28.1608H32.4019V30.2645H27.1189V31.8731H32.2785V33.853H27.1189V35.5235H32.4019V37.5653H24.7489Z" fill="var(--fill-0, #016FD0)"/>
<path id="path3052" d="M33.7597 28.1624V37.5669H36.105V34.2258H37.0925L39.9045 37.5669H42.7706L39.6847 34.1021C40.9511 33.995 42.2575 32.9053 42.2575 31.2135C42.2575 29.2344 40.7081 28.1624 38.9788 28.1624H33.7597ZM36.105 30.266H38.7859C39.429 30.266 39.8968 30.7704 39.8968 31.256C39.8968 31.8808 39.2907 32.2459 38.8206 32.2459H36.105V30.266Z" fill="var(--fill-0, #016FD0)"/>
<path id="path3054" d="M45.6096 37.5653H43.2149V28.1608H45.6096V37.5653Z" fill="var(--fill-0, #016FD0)"/>
<path id="path3056" d="M51.2876 37.5653H50.7708C48.2698 37.5653 46.7514 35.5901 46.7514 32.9017C46.7514 30.147 48.2528 28.1608 51.4111 28.1608H54.0032V30.3882H51.3163C50.0342 30.3882 49.1275 31.3912 49.1275 32.9249C49.1275 34.7462 50.1643 35.5112 51.6579 35.5112H52.2751L51.2876 37.5653Z" fill="var(--fill-0, #016FD0)"/>
<path id="path3058" d="M56.3909 28.1624L52.3561 37.5669H54.983L55.7275 35.6837H60.0554L60.7961 37.5669H63.4808L59.4498 28.1624H56.3909ZM57.8837 30.3511L59.203 33.6419H56.5607L57.8837 30.3511Z" fill="var(--fill-0, #016FD0)"/>
<path id="path3060" d="M63.7547 37.5653V28.1608H66.7364L70.5436 34.0696V28.1608H72.8889V37.5653H70.0036L66.1 31.5019V37.5653H63.7547Z" fill="var(--fill-0, #016FD0)"/>
<path id="path3062" d="M17.0959 54.0231V44.6187H24.7489V46.7223H19.4658V48.331H24.6255V50.3109H19.4658V51.9814H24.7489V54.0231H17.0959Z" fill="var(--fill-0, #016FD0)"/>
<path id="path3064" d="M54.5957 54.0231V44.6187H62.2487V46.7223H56.9657V48.331H62.1006V50.3109H56.9657V51.9814H62.2487V54.0231H54.5957Z" fill="var(--fill-0, #016FD0)"/>
<path id="path3066" d="M25.0459 54.0231L28.7721 49.3789L24.9572 44.6187H27.912L30.1839 47.5614L32.4637 44.6187H35.3027L31.5379 49.3209L35.271 54.0231H32.3167L30.1107 51.1268L27.9582 54.0231H25.0459Z" fill="var(--fill-0, #016FD0)"/>
<path id="path3068" d="M35.5496 44.6203V54.0247H37.9566V51.0549H40.4253C42.5142 51.0549 44.0975 49.944 44.0975 47.7834C44.0975 45.9937 42.8557 44.6203 40.73 44.6203H35.5496ZM37.9566 46.7471H40.5564C41.2313 46.7471 41.7136 47.1617 41.7136 47.8298C41.7136 48.4575 41.2337 48.9126 40.5487 48.9126H37.9566V46.7471Z" fill="var(--fill-0, #016FD0)"/>
<path id="path3072" d="M45.1158 44.6187V54.0231H47.4611V50.6821H48.4486L51.2606 54.0231H54.1267L51.0408 50.5583C52.3072 50.4512 53.6136 49.3615 53.6136 47.6697C53.6136 45.6907 52.0642 44.6187 50.3349 44.6187H45.1158ZM47.4611 46.7223H50.142C50.7851 46.7223 51.2529 47.2266 51.2529 47.7122C51.2529 48.337 50.6468 48.7022 50.1767 48.7022H47.4611V46.7223Z" fill="var(--fill-0, #016FD0)"/>
<path id="path3074" d="M63.335 54.0231V51.9814H68.0286C68.7231 51.9814 69.0238 51.6052 69.0238 51.1925C69.0238 50.7972 68.7241 50.3975 68.0286 50.3975H65.9076C64.064 50.3975 63.0372 49.2714 63.0372 47.5808C63.0372 46.0728 63.9775 44.6187 66.7171 44.6187H71.2843L70.2968 46.7347H66.3468C65.5918 46.7347 65.3593 47.1319 65.3593 47.5112C65.3593 47.901 65.6466 48.331 66.2234 48.331H68.4452C70.5005 48.331 71.3923 49.4997 71.3923 51.0301C71.3923 52.6755 70.3985 54.0231 68.3334 54.0231H63.335Z" fill="var(--fill-0, #016FD0)"/>
<path id="path3076" d="M71.9427 54.0231V51.9814H76.6364C77.3309 51.9814 77.6316 51.6052 77.6316 51.1925C77.6316 50.7972 77.3318 50.3975 76.6364 50.3975H74.5154C72.6717 50.3975 71.6449 49.2714 71.6449 47.5808C71.6449 46.0728 72.5852 44.6187 75.3249 44.6187H79.892L78.9045 46.7347H74.9546C74.1995 46.7347 73.9671 47.1319 73.9671 47.5112C73.9671 47.901 74.2543 48.331 74.8311 48.331H77.053C79.1082 48.331 80 49.4997 80 51.0301C80 52.6755 79.0062 54.0231 76.9411 54.0231H71.9427Z" fill="var(--fill-0, #016FD0)"/>
</g>
</svg>
