<svg preserveAspectRatio="xMidYMid meet" width="120" height="38.2107" overflow="visible" style="display: block;" viewBox="0 0 120 38.2107" fill="none" xmlns="http://www.w3.org/2000/svg">
<g id="Saab_cmyk 1" clip-path="url(#clip0_0_62)">
<path id="Vector" d="M19.1053 38.2107C22.884 38.2107 26.5778 37.0902 29.7197 34.9908C32.8615 32.8915 35.3103 29.9077 36.7564 26.4166C38.2024 22.9256 38.5808 19.0841 37.8436 15.3781C37.1064 11.672 35.2868 8.26775 32.6149 5.59582C29.9429 2.92388 26.5387 1.10428 22.8326 0.367093C19.1265 -0.370091 15.2851 0.0082569 11.794 1.4543C8.30299 2.90033 5.31914 5.34912 3.21982 8.49097C1.1205 11.6328 -1.05171e-05 15.3267 -1.05171e-05 19.1053C-0.000566675 21.6144 0.493231 24.0991 1.45317 26.4173C2.4131 28.7355 3.82038 30.8419 5.59458 32.6161C7.36879 34.3903 9.47516 35.7976 11.7934 36.7575C14.1116 37.7174 16.5962 38.2112 19.1053 38.2107Z" fill="var(--fill-0, #DFE4E8)"/>
<path id="Vector_2" d="M19.1053 0.787414C15.4824 0.787414 11.9408 1.86174 8.92844 3.87454C5.91607 5.88734 3.56822 8.74821 2.18178 12.0954C0.795339 15.4425 0.432583 19.1257 1.13938 22.679C1.84619 26.2323 3.5908 29.4963 6.15261 32.0581C8.71442 34.6199 11.9784 36.3645 15.5317 37.0713C19.085 37.7781 22.7681 37.4153 26.1153 36.0289C29.4625 34.6425 32.3233 32.2946 34.3361 29.2822C36.3489 26.2699 37.4233 22.7283 37.4233 19.1053C37.4233 14.2471 35.4934 9.58789 32.0581 6.15261C28.6228 2.71733 23.9636 0.787414 19.1053 0.787414Z" fill="var(--fill-0, #002856)"/>
<path id="Vector_3" d="M29.2274 5.65159C27.2234 3.64709 24.6693 2.28272 21.889 1.73146C19.1086 1.1802 16.2272 1.46687 13.61 2.55511C10.9928 3.64336 8.75758 5.48418 7.18777 7.84424C5.61795 10.2043 4.7842 12.9773 4.79221 15.8118V22.7037C4.88687 26.4395 6.43839 29.9902 9.11543 32.5976C11.7925 35.2049 15.3828 36.6623 19.1198 36.6584C22.8568 36.6546 26.4441 35.1898 29.1158 32.5769C31.7874 29.964 33.3316 26.4101 33.4185 22.6741V15.7991C33.4249 13.9146 33.0578 12.0476 32.3385 10.3059C31.6191 8.56417 30.5617 6.98226 29.2274 5.65159ZM28.9565 32.267C27.0253 34.1975 24.5694 35.518 21.894 36.0643C19.2185 36.6107 16.4415 36.3587 13.9081 35.3398C11.3747 34.321 9.19651 32.5801 7.6443 30.3335C6.09208 28.087 5.23426 25.4338 5.17746 22.7037C5.23058 21.7011 5.39384 20.7073 5.66429 19.7404C6.71734 22.4431 8.56242 24.7646 10.9577 26.4006C13.3529 28.0366 16.1866 28.9107 19.0872 28.9085C21.9878 28.9062 24.8201 28.0275 27.2127 26.3878C29.6054 24.748 31.4468 22.4236 32.4956 19.7192C32.7771 20.6597 32.9573 21.6276 33.0332 22.6064C32.9891 26.2356 31.5258 29.7033 28.9565 32.267ZM5.8802 19.1223C6.60157 16.9485 7.8613 14.9926 9.54209 13.4368C12.1532 11.0122 15.5887 9.67135 19.1519 9.68602C22.6903 9.69555 26.0908 11.0588 28.6559 13.4961C30.314 15.0482 31.5743 16.9764 32.3305 19.118C31.3764 21.8656 29.5902 24.2478 27.2202 25.9336C24.8501 27.6195 22.0138 28.5253 19.1053 28.5253C16.1969 28.5253 13.3606 27.6195 10.9905 25.9336C8.62046 24.2478 6.83431 21.8656 5.8802 19.118V19.1223ZM33.0375 20.2611C32.3569 17.5741 30.9165 15.1402 28.8887 13.2505C26.2526 10.7468 22.758 9.34711 19.1223 9.33888C15.4621 9.32461 11.9331 10.7017 9.24999 13.1913C7.24362 15.0572 5.82656 17.469 5.17322 20.1298V15.8118C5.17322 12.1167 6.64107 8.57304 9.25385 5.96026C11.8666 3.34748 15.4103 1.87963 19.1053 1.87963C22.8004 1.87963 26.3441 3.34748 28.9568 5.96026C31.5696 8.57304 33.0375 12.1167 33.0375 15.8118V20.2611Z" fill="var(--fill-0, #DFE4E8)"/>
<path id="Vector_4" d="M15.8752 4.44084C16.4737 4.30735 17.0805 4.21401 17.6914 4.16143L19.1053 7.04015L20.5151 4.1445C21.1251 4.20426 21.7314 4.29754 22.3312 4.4239L23.6012 8.20433L23.8933 4.85571C24.8887 5.14407 25.8475 5.54607 26.7509 6.05376C27.6907 6.5533 27.8515 7.12482 27.7753 7.70903C27.7753 7.70903 27.6949 8.30593 26.9964 8.05616C26.9964 8.05616 28.2114 8.69964 27.9404 9.90616C27.8388 10.3295 27.407 10.5623 26.7551 10.194C26.1126 9.81673 25.4434 9.48706 24.7527 9.20765C23.9951 8.90554 23.2115 8.67315 22.4116 8.51337L22.1407 7.70903C21.5183 7.58997 20.8891 7.50939 20.2568 7.46772L19.9351 8.17893C19.4609 8.17893 18.7286 8.17893 18.2417 8.17893L17.9158 7.46772C17.2837 7.51245 16.6548 7.59301 16.0319 7.70903L15.761 8.51337C15.3122 8.60651 14.8677 8.71234 14.3343 8.87321L14.4147 8.62344C13.9176 9.02346 13.3747 9.36309 12.7976 9.63522C12.2261 9.91463 10.6809 10.6978 10.3041 9.94003C10.2261 9.77194 10.1898 9.58751 10.1983 9.40239C10.6555 9.09758 11.3159 8.75891 11.7858 8.49644C11.7858 8.49644 11.5529 9.45319 12.5182 8.91978C12.8803 8.7653 13.1789 8.49204 13.3648 8.14507C13.5892 7.52275 12.9034 7.64552 12.6452 7.72172C12.2218 7.85296 10.592 8.4033 10.5877 7.29838C10.5877 6.51944 11.6334 5.72356 12.7552 5.26212C14.4486 4.56784 15.0201 5.20285 14.9735 5.72356C14.292 5.91406 14.1269 5.9691 13.5681 6.1469C13.5681 5.95216 13.4368 5.66429 12.7214 5.95216C12.0059 6.24003 11.8493 6.56601 11.9467 6.85811C12.0737 7.25182 13.1616 6.83271 13.4326 6.77767C14.9566 6.44747 14.7576 7.47619 14.7534 7.50582C14.7492 7.53545 15.871 4.44084 15.8752 4.44084ZM16.2986 6.98088C16.7325 6.89587 17.1705 6.83369 17.6109 6.79461L16.887 5.20708L16.2986 6.98088ZM24.9093 8.3525C25.3921 8.54888 25.8628 8.77364 26.3191 9.02561C26.3191 9.02561 26.6577 9.27961 26.8228 9.05948C26.9879 8.83934 26.8609 8.55147 26.2937 8.24667C25.8646 8.01878 25.4237 7.81388 24.9728 7.63282L24.9093 8.3525ZM25.0533 6.76921C25.0533 6.76921 25.6332 7.01051 26.027 7.19255C26.1547 7.27474 26.2995 7.32686 26.4503 7.34495C26.4981 7.34371 26.5442 7.32692 26.5817 7.29713C26.6191 7.26734 26.6458 7.22617 26.6577 7.17985C26.7001 6.79038 26.264 6.61681 26.1116 6.54061C25.7907 6.37438 25.4614 6.22461 25.1252 6.09187L25.0533 6.75228V6.76921ZM20.5955 6.79461C21.0366 6.82774 21.475 6.88997 21.9078 6.98088L21.3194 5.20708L20.5955 6.79461Z" fill="var(--fill-0, #E0B347)"/>
<path id="Vector_5" d="M12.1033 18.8048C12.4793 19.0261 12.9121 19.1321 13.3479 19.1096C14.275 18.9783 14.546 18.6143 15.3927 18.8598C15.6515 18.9473 15.8874 19.092 16.0827 19.2831C15.9344 19.2346 15.781 19.2034 15.6255 19.19C14.7238 19.1392 13.9999 19.8293 13.1151 19.6133C12.8949 19.5673 12.6885 19.4702 12.5128 19.3297C12.337 19.1892 12.1968 19.0094 12.1033 18.8048Z" fill="var(--fill-0, #DFE4E8)"/>
<path id="Vector_6" d="M17.1326 18.9318C16.8405 19.1815 16.1928 20.5701 14.5544 19.7785C14.5415 20.1604 14.6529 20.5363 14.8719 20.8495C15.0208 21.0241 15.2115 21.158 15.4262 21.2387C15.6409 21.3194 15.8727 21.3443 16.0996 21.3109C15.5958 21.7809 15.9303 22.4963 15.9769 23.5546C16.1509 23.1974 16.4301 22.9019 16.777 22.708C16.52 23.1568 16.3424 23.6466 16.252 24.1558C16.2139 24.9517 17.0352 25.6459 17.7549 26.6958C17.9666 25.4681 17.9158 25.0025 18.1401 24.2997C18.401 25.3987 18.5107 26.5282 18.4661 27.6568C19.7023 26.6704 21.1204 26.645 20.4939 24.0373C20.9046 24.6273 21.1926 25.2938 21.3406 25.9973C21.9248 25.049 23.2964 24.4437 22.2465 21.9417C22.818 22.4116 23.0255 23.2117 23.2541 23.525C23.4192 22.3227 24.1007 20.4939 22.6106 19.1096C23.057 19.2759 23.4444 19.5705 23.724 19.9563C23.724 18.881 24.4013 18.2629 22.8773 16.4087C23.1661 15.9271 23.3574 15.3934 23.4403 14.8381C22.8402 14.8772 22.2515 15.0205 21.7004 15.2614C21.6612 15.1813 21.6013 15.1131 21.5268 15.064C21.4524 15.0148 21.3662 14.9865 21.2771 14.982H16.9294C16.6246 14.982 16.3494 15.4053 16.1758 16.1716C16.0702 16.0925 15.955 16.0271 15.8329 15.9769C15.2995 15.7737 14.0549 15.761 13.6866 16.8997C13.569 17.3824 13.5546 17.8844 13.6443 18.373C13.6443 18.373 15.0074 17.3485 15.6763 18.5338M16.6881 17.3442C16.4679 17.213 16.3155 16.8024 16.5738 16.5949C16.7643 16.4468 17.3061 16.7219 16.8997 17.158C16.9553 17.1941 17.019 17.2157 17.0851 17.2209C17.1512 17.2261 17.2175 17.2147 17.278 17.1878C17.3386 17.1609 17.3914 17.1193 17.4318 17.0668C17.4722 17.0143 17.4989 16.9525 17.5093 16.887H17.6406C17.5855 17.2003 17.213 17.7252 16.6881 17.3823V17.3442Z" fill="var(--fill-0, #DFE4E8)"/>
<path id="Vector_7" d="M21.2728 14.7492C21.3697 14.7534 21.4628 14.7874 21.5395 14.8465L23.2541 11.1254C21.4041 11.1254 22.0687 12.3573 22.0984 12.4293C22.128 12.5012 22.0052 12.4674 22.0052 12.4674C21.9291 12.3945 21.8362 12.3416 21.7348 12.3133C21.6333 12.285 21.5264 12.2823 21.4236 12.3052C21.3209 12.3282 21.2253 12.3763 21.1456 12.4451C21.0658 12.5139 21.0043 12.6013 20.9665 12.6996C20.9287 12.7979 20.9157 12.9041 20.9288 13.0086C20.9419 13.1131 20.9807 13.2127 21.0416 13.2987C21.1025 13.3846 21.1837 13.4542 21.2779 13.5012C21.3722 13.5482 21.4766 13.5711 21.5819 13.5681C21.6353 13.5745 21.6893 13.5745 21.7428 13.5681C21.5876 13.729 21.396 13.8502 21.1841 13.9215C20.9722 13.9927 20.7463 14.012 20.5254 13.9775C20.3045 13.943 20.0952 13.8559 19.915 13.7235C19.7349 13.5911 19.5893 13.4172 19.4906 13.2167C19.4144 13.1024 19.5964 13.3564 19.8843 13.3564C19.9846 13.3565 20.0836 13.333 20.1732 13.2878C20.2627 13.2425 20.3404 13.1768 20.3999 13.096C20.4593 13.0152 20.4989 12.9215 20.5155 12.8226C20.532 12.7236 20.5251 12.6221 20.4951 12.5263C20.4652 12.4306 20.4131 12.3432 20.3431 12.2713C20.2731 12.1994 20.1872 12.145 20.0923 12.1124C19.9974 12.0799 19.8961 12.0702 19.7967 12.084C19.6973 12.0979 19.6026 12.1349 19.5202 12.1922C19.5963 12.132 19.6578 12.0554 19.7003 11.9682C19.7428 11.881 19.7652 11.7854 19.7657 11.6884C19.7657 11.5189 19.6984 11.3563 19.5785 11.2364C19.4586 11.1165 19.2961 11.0492 19.1265 11.0492C18.9934 11.0491 18.8636 11.0906 18.7552 11.1679C18.6468 11.2452 18.5653 11.3544 18.5219 11.4802C18.4786 11.6061 18.4756 11.7423 18.5134 11.87C18.5512 11.9976 18.6279 12.1103 18.7328 12.1922C18.6369 12.1258 18.5247 12.0868 18.4083 12.0796C18.2919 12.0724 18.1757 12.0972 18.0724 12.1512C17.969 12.2053 17.8825 12.2866 17.822 12.3864C17.7616 12.4861 17.7296 12.6005 17.7295 12.7171C17.7289 12.8009 17.7449 12.8839 17.7766 12.9614C17.8083 13.039 17.8549 13.1095 17.914 13.1689C17.973 13.2283 18.0432 13.2755 18.1205 13.3076C18.1978 13.3398 18.2807 13.3564 18.3645 13.3564C18.6566 13.3564 18.8386 13.1024 18.7624 13.2209C18.663 13.4207 18.517 13.5938 18.3369 13.7257C18.1568 13.8575 17.9477 13.9442 17.7272 13.9787C17.5066 14.0131 17.281 13.9941 17.0693 13.9234C16.8576 13.8527 16.6659 13.7323 16.5103 13.5723C16.5637 13.5788 16.6177 13.5788 16.6711 13.5723C16.7764 13.5754 16.8808 13.5524 16.9751 13.5054C17.0694 13.4584 17.1506 13.3888 17.2115 13.3029C17.2724 13.217 17.3111 13.1173 17.3242 13.0128C17.3373 12.9083 17.3243 12.8022 17.2865 12.7038C17.2487 12.6055 17.1872 12.5181 17.1074 12.4493C17.0277 12.3805 16.9322 12.3325 16.8294 12.3095C16.7266 12.2865 16.6197 12.2893 16.5182 12.3176C16.4168 12.3458 16.3239 12.3988 16.2478 12.4716C16.2478 12.4716 16.125 12.5055 16.1547 12.4335C16.1843 12.3615 16.8489 11.1338 14.9989 11.1338L16.6923 14.8508C16.7699 14.7938 16.8628 14.7614 16.959 14.7576L21.2728 14.7492Z" fill="var(--fill-0, #E0B347)"/>
<path id="Vector_8" d="M23.326 18.9402C23.4234 18.5169 23.3768 17.9708 22.5048 17.0352C22.2284 17.3392 21.9299 17.6222 21.6115 17.8819C21.7216 19.0164 21.7681 20.7648 20.8114 21.692C20.7897 21.15 20.6449 20.6202 20.3881 20.1425C20.3763 20.6698 20.2416 21.187 19.9946 21.6529C19.7477 22.1189 19.3953 22.5208 18.9656 22.8265C19.0722 22.1829 19.0907 21.5278 19.0207 20.8791C18.9402 21.1348 18.8017 21.3684 18.6159 21.5616C18.43 21.7547 18.202 21.9022 17.9496 21.9925L17.7125 20.7225C17.7125 20.7225 18.174 20.3965 18.174 20.3796C18.174 20.3627 18.3222 21.112 18.3222 21.112C18.809 20.6505 18.4238 19.9139 18.8852 19.7488C19.1307 19.6684 19.262 19.8547 19.3382 20.0071C19.5171 20.4188 19.5955 20.8672 19.5668 21.3152C19.8312 20.6424 19.8987 19.9082 19.7615 19.1985C19.7425 19.11 19.7572 19.0177 19.8025 18.9394C19.8479 18.8611 19.9208 18.8026 20.0071 18.7751C20.0881 18.7618 20.1712 18.7723 20.2464 18.8053C20.3216 18.8384 20.3855 18.8926 20.4304 18.9614C20.7109 19.3408 20.9125 19.7727 21.0231 20.2314C21.2304 19.5166 21.2304 18.7576 21.0231 18.0428C20.9977 17.9158 20.9553 17.7845 20.9553 17.7845C21.6512 17.2341 22.208 16.5279 22.581 15.7229C21.8314 15.9858 21.1108 16.3248 20.4304 16.7346L20.1764 16.4679L21.1416 15.7144C21.2009 15.6678 21.2263 15.5959 21.0569 15.5916H17.4924C17.1537 15.5916 16.8193 15.7017 16.8193 16.269L17.2426 16.6457C17.4207 16.5896 17.6093 16.5745 17.794 16.6016C17.9788 16.6287 18.155 16.6974 18.3095 16.8024L18.2417 17.1072C18.2417 17.1072 18.0131 16.9463 17.8946 17.0352C17.6025 17.793 17.1114 17.8819 16.7092 17.7507C16.3071 17.6194 16.197 17.0479 16.1293 16.7685C15.363 16.3452 14.1692 16.252 14.0803 17.6152C14.4052 17.4635 14.7739 17.4343 15.1186 17.5331C15.4632 17.6319 15.7606 17.852 15.9557 18.1528L18.0724 18.7667C17.3485 19.3085 16.379 21.0231 15.181 20.46C16.0277 21.3575 16.9378 20.2357 17.2299 20.7056C17.5221 21.1755 16.142 21.3363 16.3833 22.6106C16.5865 22.3989 17.0056 21.9587 17.2892 22.2211C17.3439 22.2765 17.3769 22.3497 17.3824 22.4273C17.3878 22.505 17.3653 22.582 17.3188 22.6445C16.7177 23.9145 16.4722 24.5114 17.4416 25.5232C17.6491 23.9653 17.738 23.5419 18.1486 23.525C18.7497 23.525 18.9445 26.1455 18.9953 26.7974C20.1891 26.0185 20.3711 25.883 19.9901 23.9695C19.9097 23.6266 19.9647 23.4319 20.1976 23.3387C20.3054 23.3065 20.4212 23.313 20.5247 23.357C20.6283 23.4011 20.7133 23.48 20.7648 23.5801C21.0605 24.018 21.2995 24.4917 21.476 24.9898C21.7809 24.4818 22.581 24.1431 21.7089 22.0264C21.5649 21.7639 21.5904 21.5438 21.7851 21.421C22.2084 21.1289 22.8096 21.8444 23.017 22.2042C22.9747 21.4591 23.3345 20.5108 22.1703 19.3424C21.9798 19.1138 21.9798 18.9445 22.1365 18.7878C22.3989 18.5169 23.0001 18.7497 23.326 18.9402Z" fill="var(--fill-0, #D51224)"/>
<path id="Vector_9" d="M17.9454 18.2206C18.5762 18.0936 18.4661 18.6439 19.1858 18.8005C18.5846 19.0249 18.3095 18.3179 17.9454 18.2206Z" fill="var(--fill-0, #DFE4E8)"/>
<path id="Vector_10" d="M21.7893 16.3198C21.5597 16.7154 21.1844 17.0056 20.7437 17.1283C20.8501 16.9267 20.9985 16.7502 21.1788 16.6107C21.3592 16.4712 21.5674 16.372 21.7893 16.3198Z" fill="var(--fill-0, #DFE4E8)"/>
<path id="Vector_11" d="M8.97058 26.8144C8.83498 26.7068 8.71021 26.5863 8.59803 26.4545V25.8576C8.96202 26.2358 9.35712 26.5827 9.77916 26.8948V27.4748C9.63099 27.3647 9.49129 27.2419 9.35582 27.1319V30.6879L8.97905 30.3789L8.97058 26.8144Z" fill="var(--fill-0, #DFE4E8)"/>
<path id="Vector_12" d="M10.0713 27.1192C10.4081 27.3766 10.7617 27.6113 11.1296 27.8219V28.3892C10.8926 28.2621 10.6636 28.1208 10.4438 27.9658V29.0581C10.6936 29.2232 10.8968 29.3459 11.0704 29.4518V29.9302C10.8587 29.8074 10.6809 29.7058 10.4438 29.5407V30.9462C10.6766 31.1028 10.8671 31.2086 11.1762 31.3991V32.0172C10.6174 31.6701 10.5539 31.6235 10.0543 31.2764L10.0713 27.1192Z" fill="var(--fill-0, #DFE4E8)"/>
<path id="Vector_13" d="M12.8272 32.648C11.6969 33.2618 11.0492 30.7176 11.6038 28.7744C11.7096 28.4061 12.0271 27.9277 12.7722 28.7744V29.2994C12.1922 28.4527 11.9255 28.7152 11.8832 30.036C11.8408 32.3813 12.3827 32.3474 12.823 32.0511L12.8272 32.648Z" fill="var(--fill-0, #DFE4E8)"/>
<path id="Vector_14" d="M13.1828 28.8633C13.3304 28.9335 13.4816 28.9956 13.6358 29.0496V30.8657C13.8491 30.9412 14.0668 31.0034 14.2877 31.052V29.2697C14.4258 29.3238 14.5672 29.3691 14.7111 29.4052V33.5539L14.2877 33.4269V31.5558C14.0676 31.4923 13.8432 31.4203 13.6273 31.3441V33.1899C13.4791 33.1348 13.331 33.0713 13.1744 32.9951L13.1828 28.8633Z" fill="var(--fill-0, #DFE4E8)"/>
<path id="Vector_15" d="M15.3545 29.583C15.5239 29.6296 15.6043 29.6465 15.744 29.6761C15.9896 30.4636 16.2944 31.6277 16.5441 32.4109V29.8286C16.6838 29.854 16.8405 29.8921 16.9675 29.909V34.0323C16.8405 34.0323 16.7558 33.9985 16.6288 33.9815C16.3833 33.1941 16.0277 32.1104 15.7821 31.3187V33.8206L15.3249 33.7233L15.3545 29.583Z" fill="var(--fill-0, #DFE4E8)"/>
<path id="Vector_16" d="M20.0494 29.9979C20.2103 29.9979 20.3415 29.9725 20.5193 29.9471V33.5497C20.8531 33.5289 21.1853 33.4879 21.5141 33.4269V33.9688C21.0358 34.0492 20.5278 34.1085 20.0536 34.1424L20.0494 29.9979Z" fill="var(--fill-0, #DFE4E8)"/>
<path id="Vector_17" d="M25.7983 32.4152C24.922 33.5158 23.9145 32.9994 23.9907 30.9716C24.0415 29.6338 24.668 28.4315 25.7729 28.694V29.2443C24.2701 28.567 24.3717 31.4626 24.5537 32.0723C24.7358 32.6819 25.0787 32.5379 25.3454 32.3601V31.1282C25.2438 31.1748 25.1337 31.234 25.0279 31.2764V30.7811C25.2914 30.6791 25.5474 30.5589 25.7941 30.4212L25.7983 32.4152Z" fill="var(--fill-0, #DFE4E8)"/>
<path id="Vector_18" d="M26.3064 28.2072L26.7297 27.9786V32.1357L26.3064 32.3686V28.2072Z" fill="var(--fill-0, #DFE4E8)"/>
<path id="Vector_19" d="M27.2927 27.6399C27.6597 27.4087 28.0144 27.1586 28.3553 26.8906V27.4663C28.131 27.6314 27.932 27.7796 27.6949 27.932V29.0877C27.913 28.9651 28.1199 28.8235 28.313 28.6644V29.1512C28.119 29.3052 27.9154 29.4466 27.7034 29.5745V30.9504C27.987 30.7684 28.1902 30.6202 28.4231 30.4424V30.9843C28.0683 31.2833 27.6935 31.5577 27.3012 31.8055L27.2927 27.6399Z" fill="var(--fill-0, #DFE4E8)"/>
<path id="Vector_20" d="M28.7067 30.1037C28.9565 30.2815 29.3883 29.8074 29.257 29.2274C29.1258 28.6474 28.6263 28.0421 28.6898 27.2673C28.6898 27.2673 28.7998 26.1794 29.5364 25.9254V26.4122C29.0496 26.5011 29.0327 27.0514 29.0327 27.0726C29.0288 27.2018 29.0474 27.3308 29.0877 27.4536C29.202 27.75 29.3671 28.0759 29.4899 28.3638C30.0148 29.6042 29.329 30.6456 28.7152 30.6414L28.7067 30.1037Z" fill="var(--fill-0, #DFE4E8)"/>
<path id="Vector_21" d="M19.4609 32.1019C19.4609 33.2872 19.2535 34.2525 18.483 34.2482C17.793 34.2482 17.5094 33.2872 17.5094 32.1019C17.5094 30.9165 17.793 29.9513 18.483 29.9513C19.1731 29.9513 19.4609 30.9123 19.4609 32.1019ZM18.483 30.4847C18.1274 30.4847 17.9454 31.2383 17.9454 32.1188C17.9454 32.9994 18.1274 33.719 18.483 33.7148C18.8386 33.7106 19.0249 33.0036 19.0249 32.1188C19.0249 31.234 18.8344 30.4805 18.483 30.4847Z" fill="var(--fill-0, #DFE4E8)"/>
<path id="Vector_22" d="M23.5927 31.5939C23.5927 32.7665 23.3853 33.7106 22.6191 33.7106C21.9248 33.7106 21.6412 32.7581 21.6412 31.5939C21.6412 30.4297 21.9248 29.4772 22.6191 29.4772C23.3133 29.4772 23.5927 30.4297 23.5927 31.5939ZM22.6191 29.9937C22.2635 29.9937 22.0772 30.7387 22.0772 31.6108C22.0772 32.4829 22.2635 33.1941 22.6191 33.1941C22.9747 33.1941 23.1567 32.4871 23.1567 31.6108C23.1567 30.7345 22.9535 29.9979 22.6021 30.0021L22.6191 29.9937Z" fill="var(--fill-0, #DFE4E8)"/>
<path id="Vector_23" d="M117.058 18.4703V18.4195C118.269 17.9708 119.149 16.5949 119.149 15.0032C119.149 13.4114 118.434 10.829 114.331 10.829H100.31V25.5824L93.9603 10.8121H87.0557L81.6115 23.3557L76.2182 10.8121H69.3135L63.6746 23.8002C63.7777 23.369 63.8289 22.927 63.827 22.4836C63.827 19.4948 61.9304 18.2121 58.7723 17.6702C57.1128 17.3823 52.7694 16.7431 51.3469 16.506C50.5002 16.3621 50.0769 16.0319 50.0769 15.4604C50.0769 14.347 51.1226 13.8009 53.0403 13.8009C55.6269 13.8009 56.5498 14.6095 56.7191 15.7694H63.1243C62.7686 11.7604 59.0644 10.2914 52.9218 10.2914C45.4964 10.2914 44.1205 13.4453 44.1205 15.6763C44.1205 18.1909 45.471 19.9478 48.9593 20.4685L54.6067 21.3152C56.5752 21.62 57.2864 21.929 57.2864 22.8307C57.2864 24.2786 55.7454 24.613 54.323 24.613C51.3808 24.613 50.6696 23.8044 50.5129 22.5217H43.8284C44.1586 27.2462 48.3116 28.2664 54.0521 28.2664C55.9105 28.2664 61.0414 28.2326 63.0269 25.303L61.9601 27.7626H68.0096L69.0298 25.0109H76.4298L77.4501 27.7626H85.7518L86.772 25.0109H94.172L95.1923 27.7626H113.857C119.052 27.7626 120 24.7273 120 22.7122C120 20.3034 118.844 18.8556 117.058 18.4703ZM70.3591 21.5057L72.7002 15.0836H72.751L75.1006 21.4887L70.3591 21.5057ZM88.1013 21.5057L90.4466 15.0836H90.4805L92.83 21.4887L88.1013 21.5057ZM105.958 14.4825H111.58C112.791 14.4825 113.311 15.1471 113.311 15.9049C113.311 16.6627 112.791 17.3527 111.58 17.3527H105.958V14.4825ZM112.029 24.1135H105.958V20.6759H112.029C113.218 20.6759 114.022 21.2432 114.022 22.3693C114.022 23.4954 113.218 24.0965 112.029 24.0965V24.1135Z" fill="var(--fill-0, #002856)"/>
</g>
<defs>
<clipPath id="clip0_0_62">
<rect width="120" height="38.2107" fill="white"/>
</clipPath>
</defs>
</svg>
