<svg width="48" height="48" viewBox="0 0 48 48" fill="none" xmlns="http://www.w3.org/2000/svg">
<rect width="48" height="48" rx="2" fill="#079355"/>
<path d="M8.00195 9.0463V22.2307C8.00195 22.8094 8.462 23.277 9.02866 23.277H21.124C21.6307 23.277 22.1087 23.034 22.4142 22.6201L26.672 16.8514C27.2027 16.1323 27.2027 15.1434 26.672 14.4243L22.4142 8.65684C22.1087 8.24418 21.6319 8 21.124 8H9.02866C8.462 8 8.00195 8.46882 8.00195 9.0463Z" fill="white"/>
<path d="M27.0723 9.0463V22.2307C27.0723 22.8094 27.5372 23.277 28.11 23.277H33.8047C34.3169 23.277 34.8 23.034 35.1088 22.6201L39.7464 16.4009C40.0843 15.948 40.0843 15.3253 39.7464 14.8736L35.1088 8.65684C34.8 8.24418 34.3181 8 33.8047 8H28.11C27.536 8 27.0723 8.46882 27.0723 9.0463Z" fill="white"/>
<path d="M8.00195 25.9192V38.9638C8.00195 39.5363 8.462 39.999 9.02866 39.999H21.124C21.6307 39.999 22.1087 39.7586 22.4142 39.3491L26.672 33.6416C27.2027 32.9301 27.2027 31.9517 26.672 31.2402L22.4142 25.5327C22.1087 25.1244 21.6319 24.8828 21.124 24.8828H9.02866C8.4608 24.8828 8.00195 25.3467 8.00195 25.918V25.9192Z" fill="white"/>
<path d="M27.0723 25.9203V38.9638C27.0723 39.5364 27.5372 39.999 28.11 39.999H33.8047C34.3169 39.999 34.8 39.7586 35.1088 39.3491L39.7464 33.1964C40.0843 32.7483 40.0843 32.1323 39.7464 31.6854L35.1088 25.5326C34.8 25.1244 34.3181 24.8828 33.8047 24.8828H28.11C27.536 24.8828 27.0723 25.3466 27.0723 25.9179V25.9203Z" fill="white"/>
</svg>
