<svg width="180" height="48" viewBox="0 0 180 48" fill="none" xmlns="http://www.w3.org/2000/svg">
<rect width="48" height="48" rx="1" fill="#036E45"/>
<path d="M10 10.9155V22.4522C10 22.9585 10.4026 23.3677 10.8985 23.3677H21.4833C21.9268 23.3677 22.3451 23.1551 22.6125 22.793L26.3386 17.7452C26.803 17.116 26.803 16.2507 26.3386 15.6214L22.6125 10.5747C22.3451 10.2137 21.9279 10 21.4833 10H10.8985C10.4026 10 10 10.4102 10 10.9155Z" fill="white"/>
<path d="M26.6875 10.9155V22.4522C26.6875 22.9585 27.0944 23.3677 27.5956 23.3677H32.5792C33.0274 23.3677 33.4502 23.1551 33.7204 22.793L37.7789 17.351C38.0746 16.9547 38.0746 16.4098 37.7789 16.0146L33.7204 10.5747C33.4502 10.2137 33.0285 10 32.5792 10H27.5956C27.0933 10 26.6875 10.4102 26.6875 10.9155Z" fill="white"/>
<path d="M10 25.6803V37.0946C10 37.5956 10.4026 38.0004 10.8985 38.0004H21.4833C21.9268 38.0004 22.3451 37.7901 22.6125 37.4318L26.3386 32.4376C26.803 31.815 26.803 30.9589 26.3386 30.3363L22.6125 25.3421C22.3451 24.9848 21.9279 24.7734 21.4833 24.7734H10.8985C10.4015 24.7734 10 25.1793 10 25.6793V25.6803Z" fill="white"/>
<path d="M26.6875 25.6813V37.0947C26.6875 37.5956 27.0944 38.0004 27.5956 38.0004H32.5792C33.0274 38.0004 33.4502 37.7901 33.7204 37.4318L37.7789 32.048C38.0746 31.6559 38.0746 31.1169 37.7789 30.7258L33.7204 25.342C33.4502 24.9848 33.0285 24.7734 32.5792 24.7734H27.5956C27.0933 24.7734 26.6875 25.1793 26.6875 25.6792V25.6813Z" fill="white"/>
<path d="M74.3939 25.0463C73.7795 24.402 72.9913 23.9253 72.0305 23.6117C74.8329 22.4524 75.4202 18.9432 73.9092 16.6204C72.5808 14.7431 70.3101 14.2791 67.8669 14.2507C65.6888 14.2549 62.1552 14.2479 60 14.2507V34.1107C60.8553 34.1107 62.9691 34.1107 63.7902 34.1107C66.0979 34.0482 70.4683 34.3959 72.4539 33.4721C75.902 32.3426 76.8641 27.5876 74.3925 25.0463H74.3939ZM67.5533 17.4845C68.5026 17.4845 69.2781 17.6548 69.8767 17.9954C71.295 18.7985 71.0399 21.7784 69.2353 22.1232C68.2076 22.4893 64.9348 22.2878 63.7916 22.336V17.4845H67.5533ZM70.9159 30.2383C70.2887 30.664 69.4434 30.8768 68.3786 30.8768H63.7902V25.3726H68.3786C69.442 25.3726 70.2887 25.5812 70.9159 25.997C72.1674 26.7008 72.1745 29.5189 70.9159 30.2383Z" fill="black"/>
<path d="M84.4271 34.4972C80.8465 34.5984 77.9 31.9703 78.0316 28.2527V19.5H81.5966V28.0246C81.5612 30.0167 82.583 31.273 84.4271 31.3029C86.2712 31.273 87.293 30.0167 87.2562 28.0246V19.5H90.7929V28.2527C90.9273 31.9546 87.985 34.5941 84.4257 34.4972H84.4271Z" fill="black"/>
<path d="M104.158 14.966V21.668C102.68 18.9291 98.719 18.4446 96.2378 20.1632C94.084 21.6182 93.0354 24.1248 93.051 26.831C93.034 29.5073 94.0967 32.0581 96.2378 33.4989C98.7105 35.2203 102.674 34.7216 104.158 32.004V34.1544H107.699V14.0625L104.158 14.966ZM103.166 30.1371C101.865 31.6962 99.0265 31.6962 97.7257 30.1371C96.3271 28.7335 96.3271 24.9314 97.7257 23.5263C99.0265 21.9673 101.865 21.9673 103.166 23.5263C104.564 24.93 104.564 28.732 103.166 30.1371Z" fill="black"/>
<path d="M113.349 17.8064C110.317 17.8744 110.33 13.4494 113.349 13.5004C116.327 13.4919 116.339 17.8334 113.349 17.8064ZM115.039 19.5634V34.125H111.579V19.5634H115.039Z" fill="black"/>
<path d="M132.758 22.8864C131.007 18.7951 124.874 17.6237 122.506 21.6694V14.0625L118.967 14.966V34.1542H122.506V32.0038C123.981 34.7242 127.982 35.2187 130.436 33.4987C133.687 31.3754 134.413 26.2424 132.758 22.885V22.8864ZM128.935 30.1384C127.635 31.6974 124.798 31.6974 123.498 30.1384C122.1 28.7348 122.1 24.9327 123.498 23.5277C124.798 21.9687 127.635 21.9687 128.935 23.5277C130.333 24.9313 130.333 28.7333 128.935 30.1384Z" fill="black"/>
<path d="M147.73 21.6615C144.99 17.9277 137.616 18.2963 135.889 22.8985L138.885 24.1655C139.803 22.0103 143.444 21.5846 144.702 23.5961C145.184 24.285 145.08 25.7612 145.085 26.648C142.323 24.0302 135.157 25.2801 135.308 29.915C135.129 34.7819 142.744 35.8667 145.313 32.725V34.1271H148.638V24.9341C148.638 23.606 148.335 22.5142 147.728 21.6615H147.73ZM144.291 31.3243C143.232 32.0303 140.912 32.0175 139.843 31.3385C138.685 30.7235 138.685 28.994 139.843 28.379C141.332 27.5207 145.078 27.5278 145.144 29.8595C145.144 30.4858 144.859 30.9741 144.291 31.3257V31.3243Z" fill="black"/>
<path d="M157.721 34.4988C154.664 34.553 151.739 32.8256 151.08 29.6463L153.946 28.7041C154.325 30.6271 155.872 31.5836 157.719 31.5864C158.933 31.5636 160.334 31.3337 160.444 30.1303C160.348 28.8682 159.092 28.8097 157.805 28.3886C156.09 28.0517 153.598 27.3064 152.725 26.3185C151.056 24.7639 151.238 21.6645 153.179 20.3382C156.392 17.9427 163.229 19.0805 163.679 23.8773L160.728 24.6482C160.427 22.8194 159.105 22.0685 157.409 22.05C156.304 22.0628 155.047 22.3369 154.967 23.449C155.105 24.7567 156.717 24.7696 157.805 25.1622C159.467 25.4905 161.776 26.1629 162.7 27.1894C164.092 28.4585 164.221 30.8512 163.083 32.3274C161.861 33.9191 159.844 34.4945 157.719 34.4973L157.721 34.4988Z" fill="black"/>
<path d="M179.119 22.9012C177.496 19.373 172.701 18.3478 169.506 20.2656C167.195 21.6462 166.088 24.1196 166.104 26.9061C166.088 29.6827 167.235 32.1913 169.576 33.5465C172.981 35.5264 178.166 34.3856 179.714 30.4724L176.675 29.3894C175.756 31.3608 173.174 32.001 171.354 30.9659C170.289 30.3144 169.798 29.0255 169.693 27.6958H179.967C180.104 26.0233 179.82 24.2169 179.119 22.9026V22.9012ZM173.162 22.1679C174.952 22.1609 176.107 23.461 176.391 25.2407H169.801C170.117 23.4201 171.247 22.1496 173.162 22.1679Z" fill="black"/>
</svg>
