<svg width="863" height="164" viewBox="0 0 863 164" fill="none" xmlns="http://www.w3.org/2000/svg">
<path d="M97.3555 7.14811V72.0191C97.3555 74.8665 99.6322 77.1673 102.437 77.1673H130.32C132.828 77.1673 135.194 75.9718 136.706 73.9354L159.414 43.3351C161.068 41.1064 161.068 38.0428 159.414 35.8202L136.706 5.23184C135.194 3.20143 132.834 2 130.32 2H102.437C99.6263 2 97.3555 4.30674 97.3555 7.14811Z" fill="black"/>
<path d="M97.3555 91.9913V156.852C97.3555 159.699 99.6322 161.999 102.437 161.999H130.32C132.828 161.999 135.194 160.804 136.706 158.768L159.414 128.173C161.068 125.944 161.068 122.881 159.414 120.659L136.706 90.0633C135.194 88.0333 132.834 86.832 130.32 86.832H102.437C99.6263 86.832 97.3555 89.1384 97.3555 91.9793V91.9913Z" fill="black"/>
<path d="M2 7.16634V72.267C2 75.1245 4.29887 77.4333 7.13054 77.4333H67.5716C70.1039 77.4333 72.4926 76.2337 74.0192 74.1901L95.2956 45.7059C97.9477 42.1552 97.9477 37.2722 95.2956 33.7214L74.0192 5.24328C72.4926 3.20568 70.1099 2 67.5716 2H7.13054C4.29887 2 2 4.3149 2 7.16634Z" fill="black"/>
<path d="M2 91.7384V156.834C2 159.691 4.29887 162 7.13054 162H67.5716C70.1039 162 72.4926 160.8 74.0192 158.757L95.2956 130.275C97.9477 126.724 97.9477 121.842 95.2956 118.291L74.0192 89.8094C72.4926 87.772 70.1099 86.5664 67.5716 86.5664H7.13054C4.29288 86.5664 2 88.8811 2 91.7323V91.7384Z" fill="black"/>
<path d="M333.83 141.83C313.59 142.405 296.934 127.479 297.678 106.366V56.6562H317.83V105.07C317.63 116.384 323.406 123.519 333.83 123.689C344.254 123.519 350.03 116.384 349.822 105.07V56.6562H369.814V106.366C370.574 127.39 353.942 142.381 333.822 141.83H333.83Z" fill="black"/>
<path d="M443.359 30.8396V68.9277C435.015 53.3621 412.655 50.6085 398.647 60.3755C386.487 68.6442 380.567 82.8898 380.655 98.2692C380.559 113.479 386.559 127.975 398.647 136.163C412.607 145.946 434.983 143.112 443.359 127.667V139.888H463.351V25.7051L443.359 30.8396ZM437.759 117.058C430.415 125.918 414.391 125.918 407.047 117.058C399.151 109.081 399.151 87.4737 407.047 79.4884C414.391 70.6284 430.415 70.6284 437.759 79.4884C445.655 87.4656 445.655 109.073 437.759 117.058Z" fill="black"/>
<path d="M492.767 46.6144C475.247 47.0031 475.319 21.7109 492.767 22.0025C509.975 21.9539 510.039 46.7682 492.767 46.6144ZM502.527 56.6567V139.887H482.535V56.6567H502.527Z" fill="black"/>
<path d="M599.55 75.8443C589.662 52.593 555.022 45.9359 541.646 68.928V25.6973L521.654 30.8318V139.88H541.646V127.66C549.974 143.12 572.574 145.93 586.438 136.155C604.798 124.088 608.902 94.9166 599.55 75.8362V75.8443ZM577.958 117.058C570.614 125.918 554.59 125.918 547.246 117.058C539.35 109.081 539.35 87.474 547.246 79.4887C554.59 70.6287 570.614 70.6287 577.958 79.4887C585.854 87.4659 585.854 109.073 577.958 117.058Z" fill="black"/>
<path d="M276.55 75.8443C266.662 52.593 232.022 45.9359 218.646 68.928V25.6973L198.654 30.8318V139.88H218.646V127.66C226.974 143.12 249.574 145.93 263.438 136.155C281.798 124.088 285.902 94.9166 276.55 75.8362V75.8443ZM254.958 117.058C247.614 125.918 231.59 125.918 224.246 117.058C216.35 109.081 216.35 87.474 224.246 79.4887C231.59 70.6287 247.614 70.6287 254.958 79.4887C262.854 87.4659 262.854 109.073 254.958 117.058Z" fill="black"/>
<path d="M682.576 68.9582C667.16 47.7154 625.664 49.8129 615.944 75.996L632.8 83.2038C637.968 70.9424 658.456 68.5209 665.536 79.9643C668.248 83.8841 667.664 92.2824 667.696 97.3279C652.152 82.4344 611.824 89.545 612.672 115.914C611.664 143.604 654.52 149.775 668.976 131.901V139.878H687.688V87.5771C687.688 80.021 685.984 73.8093 682.568 68.9582H682.576ZM663.224 123.932C657.264 127.949 644.208 127.876 638.192 124.013C631.68 120.514 631.68 110.674 638.192 107.176C646.576 102.292 667.656 102.333 668.024 115.598C668.024 119.162 666.424 121.94 663.224 123.94V123.932Z" fill="black"/>
<path d="M737.086 141.832C719.854 142.14 703.366 132.341 699.654 114.305L715.806 108.96C717.942 119.869 726.662 125.295 737.078 125.311C743.918 125.182 751.814 123.878 752.438 117.051C751.894 109.891 744.814 109.559 737.558 107.17C727.894 105.259 713.846 101.031 708.926 95.4271C699.518 86.6076 700.542 69.0254 711.486 61.5017C729.598 47.9121 768.134 54.3668 770.67 81.5783L754.038 85.9516C752.342 75.5772 744.886 71.3173 735.326 71.212C729.102 71.2849 722.014 72.8399 721.566 79.1487C722.342 86.5671 731.43 86.64 737.558 88.8671C746.926 90.7298 759.942 94.5443 765.15 100.367C772.998 107.567 773.726 121.14 767.31 129.514C760.422 138.544 749.054 141.808 737.078 141.824L737.086 141.832Z" fill="black"/>
<path d="M855.391 75.2763C846.191 55.0134 819.031 49.1257 800.927 60.1399C787.839 68.0685 781.567 82.2735 781.655 98.2765C781.567 114.223 788.063 128.63 801.327 136.413C820.615 147.784 849.991 141.232 858.759 118.758L841.543 112.538C836.335 123.86 821.711 127.537 811.399 121.593C805.367 117.851 802.583 110.449 801.991 102.812H860.191C860.967 93.2067 859.359 82.8323 855.391 75.2844V75.2763ZM821.639 71.065C831.783 71.0245 838.327 78.4914 839.935 88.712H802.599C804.391 78.2566 810.791 70.9597 821.639 71.065Z" fill="black"/>
</svg>
