<svg width="539" height="97" viewBox="0 0 539 97" fill="none" xmlns="http://www.w3.org/2000/svg">
<g clip-path="url(#clip0_1220_466)">
<path d="M181.397 52.2022C179.325 49.9887 176.667 48.3505 173.427 47.273C182.877 43.2898 184.858 31.2329 179.763 23.2518C175.282 16.8016 167.625 15.2073 159.385 15.1098C152.04 15.1244 140.123 15.1 132.855 15.1098V83.3464C135.739 83.3464 142.868 83.3464 145.637 83.3464C153.42 83.132 168.158 84.3264 174.854 81.1526C186.483 77.2715 189.728 60.9341 181.392 52.2022H181.397ZM158.328 26.2209C161.529 26.2209 164.144 26.806 166.163 27.9761C170.946 30.7355 170.086 40.9739 164 42.1586C160.534 43.4167 149.497 42.7242 145.642 42.8902V26.2209H158.328ZM169.668 70.0413C167.552 71.5041 164.702 72.2354 161.111 72.2354H145.637V53.3236H161.111C164.697 53.3236 167.552 54.0403 169.668 55.4686C173.888 57.8869 173.912 67.5697 169.668 70.0413Z" fill="#191919"/>
<path d="M215.754 84.5172C203.592 84.8634 193.584 75.878 194.031 63.1678V33.2422H206.14V62.3877C206.02 69.1985 209.491 73.494 215.754 73.5963C222.018 73.494 225.488 69.1985 225.363 62.3877V33.2422H237.376V63.1678C237.833 75.8244 227.839 84.8489 215.749 84.5172H215.754Z" fill="#191919"/>
<path d="M282.611 17.7004V40.6295C277.596 31.259 264.161 29.6014 255.744 35.4812C248.437 40.4589 244.879 49.0348 244.932 58.2935C244.875 67.4495 248.48 76.1765 255.744 81.1054C264.132 86.995 277.577 85.2886 282.611 75.9911V83.3483H294.623V14.6094L282.611 17.7004ZM279.245 69.6045C274.833 74.9381 265.204 74.9381 260.791 69.6045C256.046 64.8022 256.046 51.7945 260.791 46.9873C265.204 41.6534 274.833 41.6534 279.245 46.9873C283.991 51.7896 283.991 64.7973 279.245 69.6045Z" fill="#191919"/>
<path d="M313.518 27.1969C302.991 27.4308 303.034 12.2049 313.518 12.3804C323.858 12.3512 323.896 27.2896 313.518 27.1969ZM319.382 33.2424V83.3472H307.37V33.2424H319.382Z" fill="#191919"/>
<path d="M378.93 44.7923C372.991 30.7949 352.174 26.7873 344.138 40.6286V14.6035L332.124 17.6946V83.3425H344.138V75.9853C349.142 85.2925 362.723 86.9843 371.053 81.0997C382.083 73.8352 384.549 56.2739 378.93 44.7874V44.7923ZM365.957 69.6033C361.545 74.9372 351.916 74.9372 347.501 69.6033C342.758 64.801 342.758 51.7933 347.501 46.9861C351.916 41.6525 361.545 41.6525 365.957 46.9861C370.702 51.7884 370.702 64.7961 365.957 69.6033Z" fill="#191919"/>
<path d="M430.046 40.6484C420.784 27.86 395.85 29.1229 390.01 44.8852L400.137 49.2243C403.242 41.8429 415.553 40.3852 419.808 47.274C421.439 49.6338 421.088 54.6897 421.107 57.7271C411.766 48.7611 387.533 53.0418 388.042 68.9164C387.438 85.5853 413.189 89.3004 421.875 78.5404V83.3427H433.119V51.857C433.119 47.3083 432.095 43.5689 430.044 40.6484H430.046ZM418.42 73.7429C414.839 76.1612 406.993 76.1173 403.377 73.7917C399.464 71.6854 399.464 65.7617 403.377 63.6557C408.416 60.7158 421.083 60.7401 421.304 68.7261C421.304 70.8712 420.342 72.5436 418.42 73.7478V73.7429Z" fill="#191919"/>
<path d="M463.85 84.5165C453.496 84.7019 443.589 78.8024 441.36 67.9448L451.065 64.7271C452.348 71.2943 457.587 74.5608 463.847 74.5705C467.957 74.4926 472.7 73.7077 473.075 69.5976C472.749 65.2879 468.496 65.0879 464.136 63.6496C458.328 62.4991 449.887 59.9539 446.931 56.5802C441.277 51.2708 441.894 40.6862 448.47 36.1571C459.352 27.976 482.508 31.8617 484.03 48.2433L474.037 50.8761C473.019 44.6306 468.539 42.0661 462.794 42.0027C459.053 42.0467 454.795 42.9827 454.525 46.7805C454.992 51.2466 460.452 51.2905 464.136 52.6312C469.763 53.7524 477.587 56.0489 480.715 59.5543C485.432 63.8886 485.868 72.0598 482.012 77.1008C477.875 82.5371 471.043 84.5019 463.847 84.5116L463.85 84.5165Z" fill="#191919"/>
<path d="M536.003 44.4505C530.476 32.2522 514.155 28.7077 503.275 35.3381C495.411 40.1114 491.644 48.663 491.695 58.2967C491.644 67.8965 495.546 76.5699 503.518 81.2552C515.106 88.1002 532.759 84.1561 538.027 70.6267L527.681 66.8823C524.552 73.6981 515.764 75.9116 509.568 72.3331C505.943 70.0806 504.272 65.6245 503.917 61.027H538.887C539.353 55.2447 538.388 48.9992 536.003 44.4553V44.4505ZM515.721 41.9153C521.817 41.8908 525.749 46.3859 526.716 52.5389H504.28C505.358 46.2447 509.204 41.852 515.721 41.9153Z" fill="#191919"/>
<path d="M57.103 3.13755V42.6735C57.103 44.4088 58.4891 45.8109 60.1966 45.8109H77.173C78.6999 45.8109 80.1402 45.0824 81.0608 43.8413L94.8861 25.1918C95.8932 23.8335 95.8932 21.9664 94.8861 20.6118L81.0608 1.96966C80.1402 0.732213 78.7037 0 77.173 0H60.1966C58.4856 0 57.103 1.40585 57.103 3.13755Z" fill="#191919"/>
<path d="M57.103 54.3266V93.8625C57.103 95.5979 58.4891 97.0001 60.1966 97.0001H77.173C78.6999 97.0001 80.1402 96.2716 81.0608 95.0302L94.8861 76.3809C95.8932 75.0226 95.8932 73.1554 94.8861 71.8009L81.0608 53.1513C80.1402 51.914 78.7037 51.1816 77.173 51.1816H60.1966C58.4856 51.1816 57.103 52.5876 57.103 54.3193V54.3266Z" fill="#191919"/>
<path d="M0 3.13755V42.6735C0 44.4088 1.38614 45.8109 3.09354 45.8109H39.5375C41.0643 45.8109 42.5047 45.0824 43.4251 43.8413L56.2541 26.5427C57.8533 24.3864 57.8533 21.4209 56.2541 19.2646L43.4251 1.96966C42.5047 0.732213 41.068 0 39.5375 0H3.09354C1.38614 0 0 1.40585 0 3.13755Z" fill="#191919"/>
<path d="M0 54.3267V93.8626C0 95.5981 1.38614 97.0003 3.09354 97.0003H39.5375C41.0643 97.0003 42.5047 96.2717 43.4251 95.0306L56.2541 77.732C57.8533 75.5757 57.8533 72.6102 56.2541 70.4538L43.4251 53.1552C42.5047 51.9179 41.068 51.1855 39.5375 51.1855H3.09354C1.38253 51.1855 0 52.5915 0 54.3232V54.3267Z" fill="#191919"/>
</g>
<defs>
<clipPath id="clip0_1220_466">
<rect width="539" height="97" fill="white"/>
</clipPath>
</defs>
</svg>
